<?xml version="1.0" encoding="UTF-8" standalone="no"?>
<!-- Created with Inkscape (http://www.inkscape.org/) -->

<svg
   width="142.40451"
   height="822.50562"
   viewBox="0 0 142.40451 822.50561"
   version="1.1"
   id="svg5"
   inkscape:version="1.2.2 (b0a8486541, 2022-12-01)"
   sodipodi:docname="pieces-8.svg"
   xmlns:inkscape="http://www.inkscape.org/namespaces/inkscape"
   xmlns:sodipodi="http://sodipodi.sourceforge.net/DTD/sodipodi-0.dtd"
   xmlns="http://www.w3.org/2000/svg"
   xmlns:svg="http://www.w3.org/2000/svg">
  <sodipodi:namedview
     id="namedview7"
     pagecolor="#ffffff"
     bordercolor="#999999"
     borderopacity="1"
     inkscape:showpageshadow="0"
     inkscape:pageopacity="0"
     inkscape:pagecheckerboard="0"
     inkscape:deskcolor="#d1d1d1"
     inkscape:document-units="px"
     showgrid="false"
     showguides="true"
     inkscape:zoom="0.6638635"
     inkscape:cx="-187.53855"
     inkscape:cy="477.5078"
     inkscape:window-width="1854"
     inkscape:window-height="1011"
     inkscape:window-x="0"
     inkscape:window-y="0"
     inkscape:window-maximized="1"
     inkscape:current-layer="layer1" />
  <defs
     id="defs2" />
  <g
     inkscape:label="Layer 1"
     inkscape:groupmode="layer"
     id="layer1">
    <path
       d="M 71.202239,70.71072 60.846942,60.35537 h -14.6447 V 45.71072 l -10.3553,-10.35535 10.3553,-10.35535 V 10.35526 l 14.6447,10e-5 L 71.202239,9.9999999e-6 81.557569,10.35536 l 14.64465,-10e-5 V 25.00002 L 106.55757,35.35537 96.202219,45.71072 v 14.64465 h -14.6446 l -10.35538,10.35535"
       id="path463" />
    <path
       d="m 17.632527,121.33406 5.60425,-13.52987 32.664066,13.52991 -32.664036,13.52988 -5.60428,-13.52992"
       id="path1473" />
    <path
       d="M 92.239393,84.995545 67.239427,109.99552 42.239457,84.995545 h 49.999936"
       id="path396" />
    <path
       d="m 78.578011,121.33411 46.193979,-19.13419 -7.92566,19.13423 7.92562,19.13408 z"
       id="path500" />
    <path
       d="M 81.884103,147.31737 67.239391,161.96208 52.594715,147.3174 67.239427,132.67269 81.884103,147.31737"
       id="path747" />
    <path
       d="m 71.202256,246.95759 -10.35534,-10.35534 -14.6447,-5e-5 5e-5,-35.35523 24.99994,-25.00006 25.00009,25.00006 -5e-5,35.35528 h -14.64464 z"
       id="path1485" />
    <path
       id="path418"
       d="m 96.202319,280.70648 -3e-5,50.00003 -25.000048,25.00009 -25.00005,-24.99994 2.5e-5,-50.00003 25.00005,-25.00009 z" />
    <path
       d="m 71.202255,414.45555 -10.35535,10.35534 -14.6447,-4e-5 5e-5,-35.35523 24.99995,-25.00006 25.00009,25.00005 10e-6,35.35532 -14.6447,-5e-5 -10.35535,-10.35534"
       id="path521" />
    <path
       d="m 96.202255,433.55993 -10e-5,14.6447 -10.35535,10.35535 10.35535,10.35535 1.5e-4,14.6446 -14.64475,10e-5 -10.35535,-10.35535 -10.3553,10.35535 h -14.6447 l 1e-4,-14.6447 10.35535,-10.3554 -10.35535,-10.35535 -1e-4,-14.6447 14.6447,5e-5 10.35535,10.35535 10.35535,-10.35535 h 14.64465"
       id="path1467" />
    <path
       d="m 96.202215,567.30892 -24.99998,-24.99998 -24.99996,24.99997 v -49.99995 l 24.99995,-24.99997 25,24.99998 1e-5,49.99995"
       id="path604" />
    <path
       d="M 71.202255,630.17744 52.068035,622.25179 38.538226,589.5878 71.202325,576.05788 103.86628,589.58783 90.336355,622.25184 Z"
       id="path376" />
    <path
       d="m 71.20228,638.92639 32.66405,13.52988 -5.60429,13.52992 5.6042,13.52999 -32.66404,13.52989 -32.664019,-13.52989 5.60427,-13.52991 -5.6042,-13.52999 z"
       id="path772" />
    <path
       d="m 60.35537,737.1503 -8e-5,50.00003 -35.35532,35.35529 5e-5,-35.35522 -14.644689,-5e-5 L -9e-6,776.79499 14.644691,762.15028 2.1e-5,747.5056 10.355381,737.15027 H 25.00001 l 6e-5,-35.35527 z"
       id="path745" />
    <path
       d="m 107.04926,701.795 -4e-5,35.35522 35.3553,1.3e-4 -24.99998,24.99999 24.99997,24.99999 -35.35528,2e-5 -6e-5,35.35527 -35.355296,-35.3553 8e-5,-50.00003 z"
       id="path1799" />
  </g>
</svg>
